<mxfile host="app.diagrams.net" modified="2024-05-03T08:16:41.484Z" agent="Mozilla/5.0 (Windows NT 10.0; Win64; x64) AppleWebKit/537.36 (KHTML, like Gecko) Chrome/124.0.0.0 Safari/537.36" etag="qlRCWaG0WzxFv1uazGJX" version="24.3.1" type="device">
  <diagram id="prtHgNgQTEPvFCAcTncT" name="Page-1">
    <mxGraphModel dx="1909" dy="1025" grid="1" gridSize="10" guides="1" tooltips="1" connect="1" arrows="1" fold="1" page="1" pageScale="1" pageWidth="850" pageHeight="1100" math="0" shadow="0">
      <root>
        <mxCell id="0" />
        <mxCell id="1" parent="0" />
        <mxCell id="9lZ008rthi-1Io387yjq-19" value="QuadrilateralTest" style="swimlane;fontSize=14;startSize=23;" parent="1" vertex="1">
          <mxGeometry x="550" y="30" width="200" height="80" as="geometry" />
        </mxCell>
        <mxCell id="9lZ008rthi-1Io387yjq-22" value="&lt;div&gt;+ QuadrilateralTest()&lt;br&gt;&lt;/div&gt;&lt;div&gt;+ main(String[] args): void&lt;/div&gt;&lt;div&gt;&lt;br&gt;&lt;/div&gt;&lt;div&gt;&lt;br&gt;&lt;/div&gt;" style="text;html=1;align=left;verticalAlign=middle;resizable=0;points=[];autosize=1;strokeColor=none;fillColor=none;fontSize=15;" parent="9lZ008rthi-1Io387yjq-19" vertex="1">
          <mxGeometry y="30" width="200" height="90" as="geometry" />
        </mxCell>
        <mxCell id="9lZ008rthi-1Io387yjq-23" value="Point" style="swimlane;fontSize=16;startSize=23;" parent="1" vertex="1">
          <mxGeometry x="585" y="160" width="150" height="160" as="geometry" />
        </mxCell>
        <mxCell id="9lZ008rthi-1Io387yjq-24" value="" style="line;strokeWidth=2;html=1;fontSize=14;" parent="9lZ008rthi-1Io387yjq-23" vertex="1">
          <mxGeometry y="80" width="150" height="10" as="geometry" />
        </mxCell>
        <mxCell id="9lZ008rthi-1Io387yjq-25" value="&lt;span style=&quot;font-size: 14px;&quot;&gt;- x: double&lt;/span&gt;&lt;div style=&quot;font-size: 14px;&quot;&gt;&lt;span style=&quot;font-size: 14px;&quot;&gt;- y: double&lt;/span&gt;&lt;/div&gt;" style="text;html=1;align=left;verticalAlign=middle;resizable=0;points=[];autosize=1;strokeColor=none;fillColor=none;fontSize=14;" parent="9lZ008rthi-1Io387yjq-23" vertex="1">
          <mxGeometry y="30" width="90" height="50" as="geometry" />
        </mxCell>
        <mxCell id="9lZ008rthi-1Io387yjq-26" value="+ getX(): double&lt;div&gt;+ getY(): double&lt;/div&gt;&lt;div&gt;+ toString(): String&lt;/div&gt;" style="text;html=1;align=left;verticalAlign=middle;resizable=0;points=[];autosize=1;strokeColor=none;fillColor=none;fontSize=15;" parent="9lZ008rthi-1Io387yjq-23" vertex="1">
          <mxGeometry y="90" width="150" height="70" as="geometry" />
        </mxCell>
        <mxCell id="LcrMxiL6GuTGsdU8cqxs-2" value="Quadrilateral" style="swimlane;fontSize=14;startSize=23;" vertex="1" parent="1">
          <mxGeometry x="10" y="30" width="430" height="325" as="geometry" />
        </mxCell>
        <mxCell id="LcrMxiL6GuTGsdU8cqxs-3" value="" style="line;strokeWidth=2;html=1;fontSize=14;" vertex="1" parent="LcrMxiL6GuTGsdU8cqxs-2">
          <mxGeometry y="110" width="430" height="10" as="geometry" />
        </mxCell>
        <mxCell id="LcrMxiL6GuTGsdU8cqxs-5" value="+ &amp;lt;&amp;lt;constructor&amp;gt;&amp;gt; Quadrilateral(point1: Point, point2: Point&lt;div style=&quot;font-size: 14px;&quot;&gt;&lt;span style=&quot;white-space: pre; font-size: 14px;&quot;&gt;&#x9;&lt;/span&gt;&lt;span style=&quot;white-space: pre; font-size: 14px;&quot;&gt;&#x9;&lt;/span&gt;&lt;span style=&quot;white-space: pre; font-size: 14px;&quot;&gt;&#x9;&lt;span style=&quot;white-space: pre; font-size: 14px;&quot;&gt;&#x9;&lt;/span&gt;&lt;span style=&quot;white-space: pre; font-size: 14px;&quot;&gt;&#x9;&lt;/span&gt;&lt;span style=&quot;white-space: pre; font-size: 14px;&quot;&gt;&#x9;&lt;/span&gt; &lt;/span&gt;&amp;nbsp; &amp;nbsp;point3: Point, point3, Point)&lt;/div&gt;&lt;div style=&quot;font-size: 14px;&quot;&gt;+ &amp;lt;&amp;lt;constructor&amp;gt;&amp;gt; Quadrilateral(xpoint1: double, ypoint1: double&lt;div style=&quot;font-size: 14px;&quot;&gt;&lt;span style=&quot;white-space-collapse: preserve; font-size: 14px;&quot;&gt;&#x9;&lt;/span&gt;&lt;span style=&quot;white-space-collapse: preserve; font-size: 14px;&quot;&gt;&#x9;&lt;/span&gt;&lt;span style=&quot;white-space-collapse: preserve; font-size: 14px;&quot;&gt;&#x9;&lt;span style=&quot;white-space-collapse: preserve; font-size: 14px;&quot;&gt;&#x9;&lt;/span&gt;&lt;span style=&quot;white-space-collapse: preserve; font-size: 14px;&quot;&gt;&#x9;&lt;/span&gt;&lt;span style=&quot;white-space-collapse: preserve; font-size: 14px;&quot;&gt;&#x9;&lt;/span&gt; &lt;/span&gt;&amp;nbsp; &amp;nbsp;xpoint2: double, ypoint2: double&lt;/div&gt;&lt;div style=&quot;font-size: 14px;&quot;&gt;&lt;span style=&quot;white-space: pre; font-size: 14px;&quot;&gt;&#x9;&lt;/span&gt;&lt;span style=&quot;white-space: pre; font-size: 14px;&quot;&gt;&#x9;&lt;/span&gt;&lt;span style=&quot;white-space: pre; font-size: 14px;&quot;&gt;&#x9;&lt;/span&gt;&lt;span style=&quot;white-space: pre; font-size: 14px;&quot;&gt;&#x9;&lt;/span&gt;&lt;span style=&quot;white-space: pre; font-size: 14px;&quot;&gt;&#x9;&lt;/span&gt;&lt;span style=&quot;white-space: pre; font-size: 14px;&quot;&gt;&#x9;&lt;/span&gt;&amp;nbsp; &amp;nbsp; &lt;span style=&quot;background-color: initial; font-size: 14px;&quot;&gt;xpoint3: double, ypoint3: double&lt;/span&gt;&lt;/div&gt;&lt;div style=&quot;font-size: 14px;&quot;&gt;&lt;span style=&quot;background-color: initial; font-size: 14px;&quot;&gt;&lt;span style=&quot;white-space: pre; font-size: 14px;&quot;&gt;&#x9;&lt;/span&gt;&lt;span style=&quot;white-space: pre; font-size: 14px;&quot;&gt;&#x9;&lt;/span&gt;&lt;span style=&quot;white-space: pre; font-size: 14px;&quot;&gt;&#x9;&lt;/span&gt;&lt;span style=&quot;white-space: pre; font-size: 14px;&quot;&gt;&#x9;&lt;/span&gt;&lt;span style=&quot;white-space: pre; font-size: 14px;&quot;&gt;&#x9;&lt;/span&gt;&lt;span style=&quot;white-space: pre; font-size: 14px;&quot;&gt;&#x9;&lt;/span&gt;&amp;nbsp; &amp;nbsp; &lt;/span&gt;&lt;span style=&quot;background-color: initial; font-size: 14px;&quot;&gt;xpoint4: double, ypoint4: double&lt;/span&gt;&lt;span style=&quot;background-color: initial; font-size: 14px;&quot;&gt;)&lt;/span&gt;&lt;/div&gt;&lt;div style=&quot;font-size: 14px;&quot;&gt;&lt;span style=&quot;background-color: initial; font-size: 14px;&quot;&gt;+ getPoint1(): Point&lt;/span&gt;&lt;/div&gt;&lt;div style=&quot;font-size: 14px;&quot;&gt;+ getPoint2(): Point&lt;span style=&quot;background-color: initial; font-size: 14px;&quot;&gt;&lt;br style=&quot;font-size: 14px;&quot;&gt;&lt;/span&gt;&lt;/div&gt;&lt;div style=&quot;font-size: 14px;&quot;&gt;+ getPoint3(): Point&lt;br style=&quot;font-size: 14px;&quot;&gt;&lt;/div&gt;&lt;div style=&quot;font-size: 14px;&quot;&gt;+ getPoint4(): Point&lt;/div&gt;&lt;div style=&quot;font-size: 14px;&quot;&gt;+ toString(): String&lt;/div&gt;&lt;/div&gt;" style="text;html=1;align=left;verticalAlign=middle;resizable=0;points=[];autosize=1;strokeColor=none;fillColor=none;fontSize=14;" vertex="1" parent="LcrMxiL6GuTGsdU8cqxs-2">
          <mxGeometry y="125" width="430" height="200" as="geometry" />
        </mxCell>
        <mxCell id="LcrMxiL6GuTGsdU8cqxs-4" value="&lt;span style=&quot;font-size: 14px;&quot;&gt;- point1: Point&lt;/span&gt;&lt;div style=&quot;font-size: 14px;&quot;&gt;&lt;span style=&quot;font-size: 14px;&quot;&gt;- point2: Point&lt;/span&gt;&lt;/div&gt;&lt;div style=&quot;font-size: 14px;&quot;&gt;&lt;span style=&quot;font-size: 14px;&quot;&gt;-&amp;nbsp;&lt;/span&gt;&lt;span style=&quot;font-size: 14px; background-color: initial;&quot;&gt;point3: Point&lt;/span&gt;&lt;/div&gt;&lt;div style=&quot;font-size: 14px;&quot;&gt;&lt;span style=&quot;font-size: 14px; background-color: initial;&quot;&gt;-&amp;nbsp;&lt;/span&gt;&lt;span style=&quot;font-size: 14px; background-color: initial;&quot;&gt;point4: Point&lt;/span&gt;&lt;/div&gt;" style="text;html=1;align=left;verticalAlign=middle;resizable=0;points=[];autosize=1;strokeColor=none;fillColor=none;fontSize=14;" vertex="1" parent="LcrMxiL6GuTGsdU8cqxs-2">
          <mxGeometry y="25" width="110" height="80" as="geometry" />
        </mxCell>
        <mxCell id="LcrMxiL6GuTGsdU8cqxs-8" value="Trapezoid" style="swimlane;fontSize=14;startSize=23;" vertex="1" parent="1">
          <mxGeometry x="10" y="390" width="410" height="265" as="geometry" />
        </mxCell>
        <mxCell id="LcrMxiL6GuTGsdU8cqxs-9" value="" style="line;strokeWidth=2;html=1;fontSize=14;" vertex="1" parent="LcrMxiL6GuTGsdU8cqxs-8">
          <mxGeometry y="60" width="410" height="10" as="geometry" />
        </mxCell>
        <mxCell id="LcrMxiL6GuTGsdU8cqxs-10" value="+ &amp;lt;&amp;lt;constructor&amp;gt;&amp;gt; Trapezoid(point1: Point, point2: Point&lt;div style=&quot;font-size: 14px;&quot;&gt;&lt;span style=&quot;white-space: pre; font-size: 14px;&quot;&gt;&#x9;&lt;/span&gt;&lt;span style=&quot;white-space: pre; font-size: 14px;&quot;&gt;&#x9;&lt;/span&gt;&lt;span style=&quot;white-space: pre; font-size: 14px;&quot;&gt;&#x9;&lt;span style=&quot;white-space: pre; font-size: 14px;&quot;&gt;&#x9;&lt;/span&gt;&lt;span style=&quot;white-space: pre; font-size: 14px;&quot;&gt;&#x9;&lt;/span&gt; &lt;/span&gt;&amp;nbsp; &amp;nbsp; &amp;nbsp; point3: Point, point3, Point)&lt;/div&gt;&lt;div style=&quot;font-size: 14px;&quot;&gt;+ &amp;lt;&amp;lt;constructor&amp;gt;&amp;gt; Trapezoid(xpoint1: double, ypoint1: double&lt;div style=&quot;font-size: 14px;&quot;&gt;&lt;span style=&quot;white-space-collapse: preserve; font-size: 14px;&quot;&gt;&#x9;&lt;/span&gt;&lt;span style=&quot;white-space-collapse: preserve; font-size: 14px;&quot;&gt;&#x9;&lt;/span&gt;&lt;span style=&quot;white-space-collapse: preserve; font-size: 14px;&quot;&gt;&#x9;&lt;span style=&quot;white-space-collapse: preserve; font-size: 14px;&quot;&gt;&#x9;&lt;/span&gt;&lt;span style=&quot;white-space-collapse: preserve; font-size: 14px;&quot;&gt;&#x9;&lt;/span&gt;&lt;span style=&quot;white-space-collapse: preserve; font-size: 14px;&quot;&gt;&#x9;&lt;/span&gt;&lt;/span&gt;xpoint2: double, ypoint2: double&lt;/div&gt;&lt;div style=&quot;font-size: 14px;&quot;&gt;&lt;span style=&quot;white-space: pre; font-size: 14px;&quot;&gt;&#x9;&lt;/span&gt;&lt;span style=&quot;white-space: pre; font-size: 14px;&quot;&gt;&#x9;&lt;/span&gt;&lt;span style=&quot;white-space: pre; font-size: 14px;&quot;&gt;&#x9;&lt;/span&gt;&lt;span style=&quot;white-space: pre; font-size: 14px;&quot;&gt;&#x9;&lt;/span&gt;&lt;span style=&quot;white-space: pre; font-size: 14px;&quot;&gt;&#x9;&lt;/span&gt;&lt;span style=&quot;white-space: pre; font-size: 14px;&quot;&gt;&#x9;&lt;/span&gt;&lt;span style=&quot;background-color: initial; font-size: 14px;&quot;&gt;xpoint3: double, ypoint3: double&lt;/span&gt;&lt;/div&gt;&lt;div style=&quot;font-size: 14px;&quot;&gt;&lt;span style=&quot;background-color: initial; font-size: 14px;&quot;&gt;&lt;span style=&quot;white-space: pre; font-size: 14px;&quot;&gt;&#x9;&lt;/span&gt;&lt;span style=&quot;white-space: pre; font-size: 14px;&quot;&gt;&#x9;&lt;/span&gt;&lt;span style=&quot;white-space: pre; font-size: 14px;&quot;&gt;&#x9;&lt;/span&gt;&lt;span style=&quot;white-space: pre; font-size: 14px;&quot;&gt;&#x9;&lt;/span&gt;&lt;span style=&quot;white-space: pre; font-size: 14px;&quot;&gt;&#x9;&lt;/span&gt;&lt;span style=&quot;white-space: pre; font-size: 14px;&quot;&gt;&#x9;&lt;/span&gt;&lt;/span&gt;&lt;span style=&quot;background-color: initial; font-size: 14px;&quot;&gt;xpoint4: double, ypoint4: double&lt;/span&gt;&lt;span style=&quot;background-color: initial; font-size: 14px;&quot;&gt;)&lt;/span&gt;&lt;/div&gt;&lt;div style=&quot;font-size: 14px;&quot;&gt;&lt;span style=&quot;background-color: initial; font-size: 14px;&quot;&gt;+ getHeight(): double&lt;/span&gt;&lt;/div&gt;&lt;div style=&quot;font-size: 14px;&quot;&gt;+ getSumOfTwoSides(): double&lt;span style=&quot;background-color: initial; font-size: 14px;&quot;&gt;&lt;br style=&quot;font-size: 14px;&quot;&gt;&lt;/span&gt;&lt;/div&gt;&lt;div style=&quot;font-size: 14px;&quot;&gt;+ getArea(): double&lt;/div&gt;&lt;div style=&quot;font-size: 14px;&quot;&gt;+ toString(): String&lt;/div&gt;&lt;/div&gt;" style="text;html=1;align=left;verticalAlign=middle;resizable=0;points=[];autosize=1;strokeColor=none;fillColor=none;fontSize=14;" vertex="1" parent="LcrMxiL6GuTGsdU8cqxs-8">
          <mxGeometry y="85" width="410" height="180" as="geometry" />
        </mxCell>
        <mxCell id="LcrMxiL6GuTGsdU8cqxs-11" value="&lt;span style=&quot;font-size: 14px;&quot;&gt;- height: double&lt;/span&gt;" style="text;html=1;align=left;verticalAlign=middle;resizable=0;points=[];autosize=1;strokeColor=none;fillColor=none;fontSize=14;" vertex="1" parent="LcrMxiL6GuTGsdU8cqxs-8">
          <mxGeometry y="30" width="120" height="30" as="geometry" />
        </mxCell>
        <mxCell id="LcrMxiL6GuTGsdU8cqxs-12" value="Parallelogram" style="swimlane;fontSize=14;startSize=23;" vertex="1" parent="1">
          <mxGeometry x="10" y="690" width="430" height="200" as="geometry" />
        </mxCell>
        <mxCell id="LcrMxiL6GuTGsdU8cqxs-14" value="+ &amp;lt;&amp;lt;constructor&amp;gt;&amp;gt; Parallelogram(point1: Point, point2: Point&lt;div style=&quot;font-size: 14px;&quot;&gt;&lt;span style=&quot;white-space: pre; font-size: 14px;&quot;&gt;&#x9;&lt;/span&gt;&lt;span style=&quot;white-space: pre; font-size: 14px;&quot;&gt;&#x9;&lt;/span&gt;&lt;span style=&quot;white-space: pre; font-size: 14px;&quot;&gt;&#x9;&lt;span style=&quot;white-space: pre; font-size: 14px;&quot;&gt;&#x9;&lt;/span&gt;&lt;span style=&quot;white-space: pre; font-size: 14px;&quot;&gt;&#x9;&lt;/span&gt; &lt;/span&gt;&amp;nbsp; &amp;nbsp; &amp;nbsp; &amp;nbsp; &amp;nbsp; &amp;nbsp; &amp;nbsp;point3: Point, point3, Point)&lt;/div&gt;&lt;div style=&quot;font-size: 14px;&quot;&gt;+ &amp;lt;&amp;lt;constructor&amp;gt;&amp;gt; Parallelogram(xpoint1: double, ypoint1: double&lt;div style=&quot;font-size: 14px;&quot;&gt;&lt;span style=&quot;white-space-collapse: preserve; font-size: 14px;&quot;&gt;&#x9;&lt;/span&gt;&lt;span style=&quot;white-space-collapse: preserve; font-size: 14px;&quot;&gt;&#x9;&lt;/span&gt;&lt;span style=&quot;white-space-collapse: preserve; font-size: 14px;&quot;&gt;&#x9;&lt;span style=&quot;white-space-collapse: preserve; font-size: 14px;&quot;&gt;&#x9;&lt;/span&gt;&lt;span style=&quot;white-space-collapse: preserve; font-size: 14px;&quot;&gt;&#x9;&lt;/span&gt;&lt;span style=&quot;white-space-collapse: preserve; font-size: 14px;&quot;&gt;&#x9;&lt;/span&gt; &lt;/span&gt;&amp;nbsp; &amp;nbsp; xpoint2: double, ypoint2: double&lt;/div&gt;&lt;div style=&quot;font-size: 14px;&quot;&gt;&lt;span style=&quot;white-space: pre; font-size: 14px;&quot;&gt;&#x9;&lt;/span&gt;&lt;span style=&quot;white-space: pre; font-size: 14px;&quot;&gt;&#x9;&lt;/span&gt;&lt;span style=&quot;white-space: pre; font-size: 14px;&quot;&gt;&#x9;&lt;/span&gt;&lt;span style=&quot;white-space: pre; font-size: 14px;&quot;&gt;&#x9;&lt;/span&gt;&lt;span style=&quot;white-space: pre; font-size: 14px;&quot;&gt;&#x9;&lt;/span&gt;&lt;span style=&quot;white-space: pre; font-size: 14px;&quot;&gt;&#x9;&lt;/span&gt;&amp;nbsp; &amp;nbsp; &amp;nbsp;&lt;span style=&quot;background-color: initial; font-size: 14px;&quot;&gt;xpoint3: double, ypoint3: double&lt;/span&gt;&lt;/div&gt;&lt;div style=&quot;font-size: 14px;&quot;&gt;&lt;span style=&quot;background-color: initial; font-size: 14px;&quot;&gt;&lt;span style=&quot;white-space: pre; font-size: 14px;&quot;&gt;&#x9;&lt;/span&gt;&lt;span style=&quot;white-space: pre; font-size: 14px;&quot;&gt;&#x9;&lt;/span&gt;&lt;span style=&quot;white-space: pre; font-size: 14px;&quot;&gt;&#x9;&lt;/span&gt;&lt;span style=&quot;white-space: pre; font-size: 14px;&quot;&gt;&#x9;&lt;/span&gt;&lt;span style=&quot;white-space: pre; font-size: 14px;&quot;&gt;&#x9;&lt;/span&gt;&lt;span style=&quot;white-space: pre; font-size: 14px;&quot;&gt;&#x9;&lt;/span&gt;&amp;nbsp; &amp;nbsp; &amp;nbsp;&lt;/span&gt;&lt;span style=&quot;background-color: initial; font-size: 14px;&quot;&gt;xpoint4: double, ypoint4: double&lt;/span&gt;&lt;span style=&quot;background-color: initial; font-size: 14px;&quot;&gt;)&lt;/span&gt;&lt;/div&gt;&lt;div style=&quot;font-size: 14px;&quot;&gt;&lt;span style=&quot;background-color: initial; font-size: 14px;&quot;&gt;+ getWidth(): double&lt;/span&gt;&lt;/div&gt;&lt;div style=&quot;font-size: 14px;&quot;&gt;+ getArea(): double&lt;/div&gt;&lt;div style=&quot;font-size: 14px;&quot;&gt;+ toString(): String&lt;/div&gt;&lt;/div&gt;" style="text;html=1;align=left;verticalAlign=middle;resizable=0;points=[];autosize=1;strokeColor=none;fillColor=none;fontSize=14;" vertex="1" parent="LcrMxiL6GuTGsdU8cqxs-12">
          <mxGeometry y="40" width="430" height="160" as="geometry" />
        </mxCell>
        <mxCell id="LcrMxiL6GuTGsdU8cqxs-16" value="Square" style="swimlane;fontSize=14;startSize=23;" vertex="1" parent="1">
          <mxGeometry x="430" y="930" width="390" height="160" as="geometry" />
        </mxCell>
        <mxCell id="LcrMxiL6GuTGsdU8cqxs-18" value="+ &amp;lt;&amp;lt;constructor&amp;gt;&amp;gt; Square(point1: Point, point2: Point&lt;div style=&quot;font-size: 14px;&quot;&gt;&lt;span style=&quot;white-space: pre; font-size: 14px;&quot;&gt;&#x9;&lt;/span&gt;&lt;span style=&quot;white-space: pre; font-size: 14px;&quot;&gt;&#x9;&lt;/span&gt;&lt;span style=&quot;white-space: pre; font-size: 14px;&quot;&gt;&#x9;&lt;span style=&quot;white-space: pre; font-size: 14px;&quot;&gt;&#x9;&lt;/span&gt;&lt;span style=&quot;white-space: pre; font-size: 14px;&quot;&gt;&#x9;&lt;/span&gt; &lt;/span&gt;&amp;nbsp; point3: Point, point3, Point)&lt;/div&gt;&lt;div style=&quot;font-size: 14px;&quot;&gt;+ &amp;lt;&amp;lt;constructor&amp;gt;&amp;gt; Square(xpoint1: double, ypoint1: double&lt;div style=&quot;font-size: 14px;&quot;&gt;&lt;span style=&quot;white-space-collapse: preserve; font-size: 14px;&quot;&gt;&#x9;&lt;/span&gt;&lt;span style=&quot;white-space-collapse: preserve; font-size: 14px;&quot;&gt;&#x9;&lt;/span&gt;&lt;span style=&quot;white-space-collapse: preserve; font-size: 14px;&quot;&gt;&#x9;&lt;span style=&quot;white-space-collapse: preserve; font-size: 14px;&quot;&gt;&#x9;&lt;/span&gt; &lt;/span&gt;&amp;nbsp; &amp;nbsp; &amp;nbsp; &amp;nbsp; &amp;nbsp; xpoint2: double, ypoint2: double&lt;/div&gt;&lt;div style=&quot;font-size: 14px;&quot;&gt;&lt;span style=&quot;white-space: pre; font-size: 14px;&quot;&gt;&#x9;&lt;/span&gt;&lt;span style=&quot;white-space: pre; font-size: 14px;&quot;&gt;&#x9;&lt;/span&gt;&lt;span style=&quot;white-space: pre; font-size: 14px;&quot;&gt;&#x9;&lt;/span&gt;&lt;span style=&quot;white-space: pre; font-size: 14px;&quot;&gt;&#x9;&lt;/span&gt;&amp;nbsp; &amp;nbsp; &amp;nbsp; &amp;nbsp; &amp;nbsp; &amp;nbsp;&lt;span style=&quot;background-color: initial; font-size: 14px;&quot;&gt;xpoint3: double, ypoint3: double&lt;/span&gt;&lt;/div&gt;&lt;div style=&quot;font-size: 14px;&quot;&gt;&lt;span style=&quot;background-color: initial; font-size: 14px;&quot;&gt;&lt;span style=&quot;white-space: pre; font-size: 14px;&quot;&gt;&#x9;&lt;/span&gt;&lt;span style=&quot;white-space: pre; font-size: 14px;&quot;&gt;&#x9;&lt;/span&gt;&lt;span style=&quot;white-space: pre; font-size: 14px;&quot;&gt;&#x9;&lt;/span&gt;&lt;span style=&quot;white-space: pre; font-size: 14px;&quot;&gt;&#x9;&lt;/span&gt;&lt;span style=&quot;white-space: pre; font-size: 14px;&quot;&gt;&#x9;&lt;/span&gt;&amp;nbsp; &amp;nbsp;&lt;/span&gt;&lt;span style=&quot;background-color: initial; font-size: 14px;&quot;&gt;xpoint4: double, ypoint4: double&lt;/span&gt;&lt;span style=&quot;background-color: initial; font-size: 14px;&quot;&gt;)&lt;/span&gt;&lt;/div&gt;&lt;div style=&quot;font-size: 14px;&quot;&gt;+ toString(): String&lt;/div&gt;&lt;/div&gt;" style="text;html=1;align=left;verticalAlign=middle;resizable=0;points=[];autosize=1;strokeColor=none;fillColor=none;fontSize=14;" vertex="1" parent="LcrMxiL6GuTGsdU8cqxs-16">
          <mxGeometry y="27.5" width="390" height="130" as="geometry" />
        </mxCell>
        <mxCell id="LcrMxiL6GuTGsdU8cqxs-20" value="Rectangle" style="swimlane;fontSize=14;startSize=23;" vertex="1" parent="1">
          <mxGeometry x="10" y="930" width="410" height="160" as="geometry" />
        </mxCell>
        <mxCell id="LcrMxiL6GuTGsdU8cqxs-21" value="+ &amp;lt;&amp;lt;constructor&amp;gt;&amp;gt; Rectangle(point1: Point, point2: Point&lt;div style=&quot;font-size: 14px;&quot;&gt;&lt;span style=&quot;white-space: pre; font-size: 14px;&quot;&gt;&#x9;&lt;/span&gt;&lt;span style=&quot;white-space: pre; font-size: 14px;&quot;&gt;&#x9;&lt;/span&gt;&lt;span style=&quot;white-space: pre; font-size: 14px;&quot;&gt;&#x9;&lt;span style=&quot;white-space: pre; font-size: 14px;&quot;&gt;&#x9;&lt;/span&gt;&lt;span style=&quot;white-space: pre; font-size: 14px;&quot;&gt;&#x9;&lt;/span&gt; &lt;/span&gt;&amp;nbsp; &amp;nbsp; &amp;nbsp; point3: Point, point3, Point)&lt;/div&gt;&lt;div style=&quot;font-size: 14px;&quot;&gt;+ &amp;lt;&amp;lt;constructor&amp;gt;&amp;gt; Rectangle(xpoint1: double, ypoint1: double&lt;div style=&quot;font-size: 14px;&quot;&gt;&lt;span style=&quot;white-space-collapse: preserve; font-size: 14px;&quot;&gt;&#x9;&lt;/span&gt;&lt;span style=&quot;white-space-collapse: preserve; font-size: 14px;&quot;&gt;&#x9;&lt;/span&gt;&lt;span style=&quot;white-space-collapse: preserve; font-size: 14px;&quot;&gt;&#x9;&lt;span style=&quot;white-space-collapse: preserve; font-size: 14px;&quot;&gt;&#x9;&lt;/span&gt; &lt;/span&gt;&amp;nbsp; &amp;nbsp; &amp;nbsp; &amp;nbsp; &amp;nbsp; &amp;nbsp; &amp;nbsp; xpoint2: double, ypoint2: double&lt;/div&gt;&lt;div style=&quot;font-size: 14px;&quot;&gt;&lt;span style=&quot;white-space: pre; font-size: 14px;&quot;&gt;&#x9;&lt;/span&gt;&lt;span style=&quot;white-space: pre; font-size: 14px;&quot;&gt;&#x9;&lt;/span&gt;&lt;span style=&quot;white-space: pre; font-size: 14px;&quot;&gt;&#x9;&lt;/span&gt;&lt;span style=&quot;white-space: pre; font-size: 14px;&quot;&gt;&#x9;&lt;/span&gt;&amp;nbsp; &amp;nbsp; &amp;nbsp; &amp;nbsp; &amp;nbsp; &amp;nbsp; &amp;nbsp; &amp;nbsp;&lt;span style=&quot;background-color: initial; font-size: 14px;&quot;&gt;xpoint3: double, ypoint3: double&lt;/span&gt;&lt;/div&gt;&lt;div style=&quot;font-size: 14px;&quot;&gt;&lt;span style=&quot;background-color: initial; font-size: 14px;&quot;&gt;&lt;span style=&quot;white-space: pre; font-size: 14px;&quot;&gt;&#x9;&lt;/span&gt;&lt;span style=&quot;white-space: pre; font-size: 14px;&quot;&gt;&#x9;&lt;/span&gt;&lt;span style=&quot;white-space: pre; font-size: 14px;&quot;&gt;&#x9;&lt;/span&gt;&lt;span style=&quot;white-space: pre; font-size: 14px;&quot;&gt;&#x9;&lt;/span&gt;&lt;span style=&quot;white-space: pre; font-size: 14px;&quot;&gt;&#x9;&lt;/span&gt;&amp;nbsp; &amp;nbsp; &amp;nbsp; &amp;nbsp;&lt;/span&gt;&lt;span style=&quot;background-color: initial; font-size: 14px;&quot;&gt;xpoint4: double, ypoint4: double&lt;/span&gt;&lt;span style=&quot;background-color: initial; font-size: 14px;&quot;&gt;)&lt;/span&gt;&lt;/div&gt;&lt;div style=&quot;font-size: 14px;&quot;&gt;+ toString(): String&lt;/div&gt;&lt;/div&gt;" style="text;html=1;align=left;verticalAlign=middle;resizable=0;points=[];autosize=1;strokeColor=none;fillColor=none;fontSize=14;" vertex="1" parent="LcrMxiL6GuTGsdU8cqxs-20">
          <mxGeometry y="30" width="410" height="130" as="geometry" />
        </mxCell>
        <mxCell id="LcrMxiL6GuTGsdU8cqxs-27" style="edgeStyle=orthogonalEdgeStyle;rounded=0;orthogonalLoop=1;jettySize=auto;html=1;entryX=0.476;entryY=-0.005;entryDx=0;entryDy=0;entryPerimeter=0;" edge="1" parent="1" source="LcrMxiL6GuTGsdU8cqxs-8" target="LcrMxiL6GuTGsdU8cqxs-12">
          <mxGeometry relative="1" as="geometry" />
        </mxCell>
        <mxCell id="LcrMxiL6GuTGsdU8cqxs-28" style="edgeStyle=orthogonalEdgeStyle;rounded=0;orthogonalLoop=1;jettySize=auto;html=1;entryX=0.526;entryY=-0.015;entryDx=0;entryDy=0;entryPerimeter=0;" edge="1" parent="1" source="LcrMxiL6GuTGsdU8cqxs-14" target="LcrMxiL6GuTGsdU8cqxs-20">
          <mxGeometry relative="1" as="geometry" />
        </mxCell>
        <mxCell id="LcrMxiL6GuTGsdU8cqxs-29" style="edgeStyle=orthogonalEdgeStyle;rounded=0;orthogonalLoop=1;jettySize=auto;html=1;exitX=1.005;exitY=0.516;exitDx=0;exitDy=0;exitPerimeter=0;" edge="1" parent="1">
          <mxGeometry relative="1" as="geometry">
            <mxPoint x="617.85" y="935" as="targetPoint" />
            <mxPoint x="439.9999999999999" y="832.56" as="sourcePoint" />
          </mxGeometry>
        </mxCell>
        <mxCell id="LcrMxiL6GuTGsdU8cqxs-30" value="" style="edgeStyle=orthogonalEdgeStyle;rounded=0;orthogonalLoop=1;jettySize=auto;html=1;entryX=0.524;entryY=0.004;entryDx=0;entryDy=0;entryPerimeter=0;" edge="1" parent="1" source="LcrMxiL6GuTGsdU8cqxs-5" target="LcrMxiL6GuTGsdU8cqxs-8">
          <mxGeometry relative="1" as="geometry" />
        </mxCell>
      </root>
    </mxGraphModel>
  </diagram>
</mxfile>
